<svg id="visual" viewBox="0 0 900 600" width="100%" height="100%" xmlns="http://www.w3.org/2000/svg" xmlns:xlink="http://www.w3.org/1999/xlink" version="1.1"><rect x="0" y="0" width="900" height="600" fill="#000000"></rect><path d="M0 187L129 191L257 191L386 180L514 194L643 177L771 194L900 191L900 601L771 601L643 601L514 601L386 601L257 601L129 601L0 601Z" fill="#ffffff"></path><path d="M0 191L129 224L257 207L386 199L514 210L643 195L771 203L900 209L900 601L771 601L643 601L514 601L386 601L257 601L129 601L0 601Z" fill="#e6e6e9"></path><path d="M0 257L129 263L257 225L386 235L514 227L643 237L771 247L900 254L900 601L771 601L643 601L514 601L386 601L257 601L129 601L0 601Z" fill="#cdcdd3"></path><path d="M0 299L129 284L257 265L386 296L514 289L643 300L771 291L900 288L900 601L771 601L643 601L514 601L386 601L257 601L129 601L0 601Z" fill="#b5b4be"></path><path d="M0 330L129 298L257 306L386 310L514 317L643 311L771 306L900 305L900 601L771 601L643 601L514 601L386 601L257 601L129 601L0 601Z" fill="#9d9ca9"></path><path d="M0 355L129 336L257 347L386 338L514 358L643 338L771 363L900 342L900 601L771 601L643 601L514 601L386 601L257 601L129 601L0 601Z" fill="#868595"></path><path d="M0 381L129 404L257 397L386 378L514 375L643 379L771 379L900 379L900 601L771 601L643 601L514 601L386 601L257 601L129 601L0 601Z" fill="#706f81"></path><path d="M0 424L129 428L257 438L386 439L514 428L643 405L771 417L900 415L900 601L771 601L643 601L514 601L386 601L257 601L129 601L0 601Z" fill="#5a596e"></path><path d="M0 473L129 468L257 473L386 473L514 457L643 443L771 441L900 442L900 601L771 601L643 601L514 601L386 601L257 601L129 601L0 601Z" fill="#45455b"></path><path d="M0 491L129 476L257 477L386 497L514 495L643 507L771 497L900 496L900 601L771 601L643 601L514 601L386 601L257 601L129 601L0 601Z" fill="#303149"></path><path d="M0 514L129 540L257 534L386 527L514 520L643 539L771 530L900 522L900 601L771 601L643 601L514 601L386 601L257 601L129 601L0 601Z" fill="#1c1f38"></path><path d="M0 573L129 561L257 561L386 548L514 562L643 557L771 554L900 560L900 601L771 601L643 601L514 601L386 601L257 601L129 601L0 601Z" fill="#090a27"></path></svg>