<svg id="visual" viewBox="0 0 900 600" width="900" height="600" xmlns="http://www.w3.org/2000/svg" xmlns:xlink="http://www.w3.org/1999/xlink" version="1.1"><path d="M0 79L15 79C30 79 60 79 90 74C120 69 150 59 180 56C210 53 240 57 270 65C300 73 330 85 360 86C390 87 420 77 450 72C480 67 510 67 540 71C570 75 600 83 630 85C660 87 690 83 720 78C750 73 780 67 810 69C840 71 870 81 885 86L900 91L900 0L885 0C870 0 840 0 810 0C780 0 750 0 720 0C690 0 660 0 630 0C600 0 570 0 540 0C510 0 480 0 450 0C420 0 390 0 360 0C330 0 300 0 270 0C240 0 210 0 180 0C150 0 120 0 90 0C60 0 30 0 15 0L0 0Z" fill="#020c1c"></path><path d="M0 259L15 256C30 253 60 247 90 233C120 219 150 197 180 207C210 217 240 259 270 268C300 277 330 253 360 248C390 243 420 257 450 248C480 239 510 207 540 200C570 193 600 211 630 211C660 211 690 193 720 189C750 185 780 195 810 213C840 231 870 257 885 270L900 283L900 89L885 84C870 79 840 69 810 67C780 65 750 71 720 76C690 81 660 85 630 83C600 81 570 73 540 69C510 65 480 65 450 70C420 75 390 85 360 84C330 83 300 71 270 63C240 55 210 51 180 54C150 57 120 67 90 72C60 77 30 77 15 77L0 77Z" fill="#303643"></path><path d="M0 319L15 321C30 323 60 327 90 324C120 321 150 311 180 316C210 321 240 341 270 339C300 337 330 313 360 310C390 307 420 325 450 324C480 323 510 303 540 299C570 295 600 307 630 307C660 307 690 295 720 297C750 299 780 315 810 335C840 355 870 379 885 391L900 403L900 281L885 268C870 255 840 229 810 211C780 193 750 183 720 187C690 191 660 209 630 209C600 209 570 191 540 198C510 205 480 237 450 246C420 255 390 241 360 246C330 251 300 275 270 266C240 257 210 215 180 205C150 195 120 217 90 231C60 245 30 251 15 254L0 257Z" fill="#5e636d"></path><path d="M0 469L15 471C30 473 60 477 90 477C120 477 150 473 180 475C210 477 240 485 270 485C300 485 330 477 360 475C390 473 420 477 450 477C480 477 510 473 540 476C570 479 600 489 630 487C660 485 690 471 720 462C750 453 780 449 810 456C840 463 870 481 885 490L900 499L900 401L885 389C870 377 840 353 810 333C780 313 750 297 720 295C690 293 660 305 630 305C600 305 570 293 540 297C510 301 480 321 450 322C420 323 390 305 360 308C330 311 300 335 270 337C240 339 210 319 180 314C150 309 120 319 90 322C60 325 30 321 15 319L0 317Z" fill="#91949b"></path><path d="M0 547L15 546C30 545 60 543 90 541C120 539 150 537 180 539C210 541 240 547 270 549C300 551 330 549 360 546C390 543 420 539 450 541C480 543 510 551 540 552C570 553 600 547 630 542C660 537 690 533 720 531C750 529 780 529 810 533C840 537 870 545 885 549L900 553L900 497L885 488C870 479 840 461 810 454C780 447 750 451 720 460C690 469 660 483 630 485C600 487 570 477 540 474C510 471 480 475 450 475C420 475 390 471 360 473C330 475 300 483 270 483C240 483 210 475 180 473C150 471 120 475 90 475C60 475 30 471 15 469L0 467Z" fill="#c6c8cc"></path><path d="M0 601L15 601C30 601 60 601 90 601C120 601 150 601 180 601C210 601 240 601 270 601C300 601 330 601 360 601C390 601 420 601 450 601C480 601 510 601 540 601C570 601 600 601 630 601C660 601 690 601 720 601C750 601 780 601 810 601C840 601 870 601 885 601L900 601L900 551L885 547C870 543 840 535 810 531C780 527 750 527 720 529C690 531 660 535 630 540C600 545 570 551 540 550C510 549 480 541 450 539C420 537 390 541 360 544C330 547 300 549 270 547C240 545 210 539 180 537C150 535 120 537 90 539C60 541 30 543 15 544L0 545Z" fill="#ffffff"></path></svg>